# xmcd CD database file
#
# Track frame offsets:
#	150
#	10029
#	14205
#	27323
#	31967
#	36324
#	41324
#	54993
#	60007
#	70410
#	79174
#	82793
#	86928
#	90961
#	100779
#	106408
#	109736
#	115364
#	118570
#
# Disc length: 1947 seconds
#
# Revision: 0
# Processed by: cddbd v1.5.2PL0 Copyright (c) Steve Scherf et al.
# Submitted via: CDex 1.51
#
DISCID=e3079913
DTITLE=Leadbelly - King of the 12-String Guitar
DYEAR=1991
DGENRE=Blues
TTITLE0=Packin' Trunk Blues 
TTITLE1=Becky Deam, She Was a Gamblin' Gal 
TTITLE2=Honey, I'm All out and Down 
TTITLE3=Four Day Worry Blues 
TTITLE4=Roberta, Pt. 1 [Alternate Take]
TTITLE5=Roberta, Pt. 2 [Alternate Take]
TTITLE6=Death Letter Blues, Pt. 1 [Alternate Take]
TTITLE7=Death Letter Blues, Pt. 2 [Alternate Take]
TTITLE8=Kansas City Papa [Alternate Take]
TTITLE9=Fort Worth and Dallas Blues [Alternate Take]
TTITLE10=You Don't Know My Mind 
TTITLE11=Ox Drivin' Blues 
TTITLE12=Daddy I'm Coming Back to You
TTITLE13=Shorty George
TTITLE14=Yellow Jacket
TTITLE15=T.B. Blues
TTITLE16=Pigmeat
TTITLE17=My Baby Left Me 
TTITLE18=[Bonus Track]
EXTD=YEAR: 1991
EXTT0=
EXTT1=
EXTT2=
EXTT3=
EXTT4=
EXTT5=
EXTT6=
EXTT7=
EXTT8=
EXTT9=
EXTT10=
EXTT11=
EXTT12=
EXTT13=
EXTT14=
EXTT15=
EXTT16=
EXTT17=
EXTT18=
PLAYORDER=
